<?xml version="1.0" encoding="utf-8"?>
<!-- Generator: Adobe Illustrator 19.1.0, SVG Export Plug-In . SVG Version: 6.00 Build 0)  -->
<svg version="1.1" id="Layer_1" xmlns="http://www.w3.org/2000/svg" xmlns:xlink="http://www.w3.org/1999/xlink" x="0px" y="0px"
	 viewBox="0 0 220.7 80.9" style="enable-background:new 0 0 220.7 80.9;" xml:space="preserve">
<style type="text/css">
	.st0{fill:#FFFFFF;}
</style>
<path class="st0" d="M113.5,80.3c3.5-17.4,6.7-33.8,10.3-50.2c0.4-1.8,2.6-4.5,4.1-4.6c7.3-0.5,14.6-0.2,22.5-0.2
	c-2.8,13.3-5.4,26.1-8.3,39.6c3.9-0.2,7.3-0.3,10.7-0.5c6.5-0.4,13-0.5,19.4-1.3c3-0.4,6.3-1.5,8.6-3.4c9.2-7.2,12.7-17.4,12.3-28.7
	c-0.3-8.9-6.4-13.8-16.3-13.9c-14.8-0.2-29.7-0.1-44.5-0.1c-1.8,0-3.6,0-5.2,0c-0.2-0.7-0.2-0.9-0.2-1c2.2-15.7,2.2-15.8,18-15.8
	c16.3,0,32.6,0,49,0.3c18.4,0.3,28.6,11.4,26.4,29.6c-1.1,8.8-3.5,17.7-7,25.8c-6.8,15.9-19.8,23.8-37,24.2
	c-18.8,0.5-37.6,0.6-56.5,0.9C118,80.9,116,80.6,113.5,80.3z"/>
<path class="st0" d="M111.7,0.1c-2.1,10.1-3.9,19.1-5.9,28.2c-3.2,15.1-6.5,30.2-9.8,45.3c-1.5,7-1.9,7.4-9.3,7.3
	c-5.6,0-11.3,0-17.6,0c2.3-11.5,4.4-22.3,6.7-34c-6.4,0-12.3,0-18.3,0c-7,0-14,0.1-21,0c-2.8-0.1-4.1,0.7-4.7,3.7
	c-1.6,8.1-3.8,16.2-5.4,24.3c-0.8,4.4-2.9,6.3-7.4,6.1C13.1,80.8,7.1,81,0,81c1.2-6.3,2.3-12,3.5-17.8c3.9-19,8-38,11.8-57.1
	c0.9-4.8,3.3-6.3,7.9-6.1c6.1,0.3,12.3,0.1,19.3,0.1c-2,10-3.8,19.3-5.8,29.4c5.6,0,10.7,0,15.8,0c6.8,0,13.7-0.3,20.5,0.1
	c5.3,0.3,7.6-1.8,8.3-6.8c0.9-5.9,2.3-11.7,3.5-17.6c0.6-3.4,2.3-5.2,6-5.1C97.3,0.3,104,0.1,111.7,0.1z"/>
</svg>
